<svg id="Capa_1" data-name="Capa 1" xmlns="http://www.w3.org/2000/svg" width="498.12" height="294.06" viewBox="0 0 498.12 294.06">
  <title>logo_ic</title>
  <g>
    <g>
      <path d="M37,282.78a2.47,2.47,0,0,1-2.63,2.54,2.43,2.43,0,0,1-2.49-2.54,2.52,2.52,0,0,1,2.58-2.58A2.48,2.48,0,0,1,37,282.78Zm-4.61,29.14V289.17h4.14v22.75H32.43Z" transform="translate(-31.23 -28.2)" fill="#fff"/>
      <path d="M43.43,295.33c0-2.4,0-4.28-.19-6.16h3.67l0.24,3.76h0.09a8.42,8.42,0,0,1,7.52-4.23c3.15,0,8,1.88,8,9.68v13.54H58.65V298.8c0-3.67-1.36-6.72-5.26-6.72a6.07,6.07,0,0,0-5.83,6.16v13.68H43.43V295.33Z" transform="translate(-31.23 -28.2)" fill="#fff"/>
      <path d="M69.51,295.33c0-2.4,0-4.28-.19-6.16H73l0.23,3.76h0.09a8.42,8.42,0,0,1,7.52-4.23c3.15,0,8,1.88,8,9.68v13.54H84.74V298.8c0-3.67-1.36-6.72-5.26-6.72a6.06,6.06,0,0,0-5.83,6.16v13.68H69.51V295.33Z" transform="translate(-31.23 -28.2)" fill="#fff"/>
      <path d="M116.18,300.36c0,8.41-5.87,12.08-11.33,12.08-6.11,0-10.9-4.51-10.9-11.7,0-7.57,5-12,11.28-12C111.76,288.7,116.18,293.45,116.18,300.36Zm-18,.24c0,5,2.82,8.74,6.86,8.74s6.91-3.71,6.91-8.83c0-3.85-1.93-8.7-6.81-8.7S98.18,296.31,98.18,300.59Z" transform="translate(-31.23 -28.2)" fill="#fff"/>
      <path d="M122.67,289.17l4.46,12.74c0.75,2.12,1.36,4,1.83,5.88h0.14c0.52-1.88,1.18-3.76,1.93-5.87l4.42-12.74h4.32l-8.93,22.75H126.9l-8.65-22.75h4.42Z" transform="translate(-31.23 -28.2)" fill="#fff"/>
      <path d="M159.47,306.47a38.11,38.11,0,0,0,.33,5.45h-3.71L155.76,309h-0.14a8.47,8.47,0,0,1-7,3.38c-4.61,0-7-3.24-7-6.53,0-5.5,4.89-8.51,13.68-8.46V297c0-1.83-.52-5.26-5.17-5.22a11,11,0,0,0-6,1.69l-0.94-2.77a14.72,14.72,0,0,1,7.52-2c7,0,8.65,4.75,8.65,9.26v8.51Zm-4-6.16c-4.51-.09-9.63.71-9.63,5.12a3.62,3.62,0,0,0,3.85,3.95,5.74,5.74,0,0,0,5.59-3.81,4.64,4.64,0,0,0,.19-1.32v-3.95Z" transform="translate(-31.23 -28.2)" fill="#fff"/>
      <path d="M182.36,311.12a16,16,0,0,1-6.53,1.32c-6.86,0-11.33-4.65-11.33-11.61s4.79-12.12,12.22-12.12a13,13,0,0,1,5.73,1.22l-0.94,3.15a10.12,10.12,0,0,0-4.79-1.08c-5.22,0-8,3.9-8,8.6,0,5.26,3.38,8.51,7.9,8.51a11.84,11.84,0,0,0,5.08-1.08Z" transform="translate(-31.23 -28.2)" fill="#fff"/>
      <path d="M191.8,282.78a2.47,2.47,0,0,1-2.63,2.54,2.43,2.43,0,0,1-2.49-2.54,2.52,2.52,0,0,1,2.58-2.58A2.48,2.48,0,0,1,191.8,282.78Zm-4.61,29.14V289.17h4.14v22.75H187.2Z" transform="translate(-31.23 -28.2)" fill="#fff"/>
      <path d="M218.78,300.36c0,8.41-5.87,12.08-11.33,12.08-6.11,0-10.9-4.51-10.9-11.7,0-7.57,5-12,11.28-12C214.36,288.7,218.78,293.45,218.78,300.36Zm-18,.24c0,5,2.82,8.74,6.86,8.74s6.91-3.71,6.91-8.83c0-3.85-1.93-8.7-6.81-8.7S200.78,296.31,200.78,300.59Zm13.07-21.24-5.73,6.72H205.2l4.09-6.72h4.56Z" transform="translate(-31.23 -28.2)" fill="#fff"/>
      <path d="M224,295.33c0-2.4,0-4.28-.19-6.16h3.67l0.24,3.76h0.09a8.42,8.42,0,0,1,7.52-4.23c3.15,0,8,1.88,8,9.68v13.54h-4.14V298.8c0-3.67-1.36-6.72-5.26-6.72a6.07,6.07,0,0,0-5.83,6.16v13.68H224V295.33Z" transform="translate(-31.23 -28.2)" fill="#fff"/>
      <path d="M261.55,289.17l4.93,13.44c0.56,1.5,1.13,3.29,1.5,4.65h0.09c0.42-1.36.89-3.1,1.46-4.75l4.51-13.35h4.37l-6.2,16.21c-3,7.8-5,11.75-7.8,14.24a11.73,11.73,0,0,1-5.08,2.63l-1-3.43a10.91,10.91,0,0,0,3.62-2,13.06,13.06,0,0,0,3.48-4.61,3,3,0,0,0,.33-1,2.86,2.86,0,0,0-.33-1.08l-8.37-21h4.51Z" transform="translate(-31.23 -28.2)" fill="#fff"/>
      <path d="M308.36,311.12a16,16,0,0,1-6.53,1.32c-6.86,0-11.33-4.65-11.33-11.61s4.79-12.12,12.22-12.12a13,13,0,0,1,5.73,1.22l-0.94,3.15a10.12,10.12,0,0,0-4.79-1.08c-5.22,0-8,3.9-8,8.6,0,5.26,3.38,8.51,7.9,8.51a11.84,11.84,0,0,0,5.08-1.08Z" transform="translate(-31.23 -28.2)" fill="#fff"/>
      <path d="M332.24,305.67c0,2.4,0,4.46.19,6.25h-3.67l-0.24-3.71h-0.09a8.5,8.5,0,0,1-7.52,4.23c-3.57,0-7.85-2-7.85-10v-13.3h4.14v12.55c0,4.32,1.36,7.28,5.08,7.28a6,6,0,0,0,5.45-3.81,5.68,5.68,0,0,0,.38-2.12V289.17h4.14v16.5Z" transform="translate(-31.23 -28.2)" fill="#fff"/>
      <path d="M355.08,306.47a38.11,38.11,0,0,0,.33,5.45H351.7L351.37,309h-0.14a8.47,8.47,0,0,1-7,3.38c-4.61,0-7-3.24-7-6.53,0-5.5,4.89-8.51,13.68-8.46V297c0-1.83-.52-5.26-5.17-5.22a11,11,0,0,0-6,1.69l-0.94-2.77a14.72,14.72,0,0,1,7.52-2c7,0,8.65,4.75,8.65,9.26v8.51Zm-4-6.16c-4.51-.09-9.63.71-9.63,5.12a3.62,3.62,0,0,0,3.85,3.95,5.74,5.74,0,0,0,5.59-3.81,4.68,4.68,0,0,0,.19-1.32v-3.95Z" transform="translate(-31.23 -28.2)" fill="#fff"/>
      <path d="M361.75,278.55h4.14v33.37h-4.14V278.55Z" transform="translate(-31.23 -28.2)" fill="#fff"/>
      <path d="M377.45,282.78a2.47,2.47,0,0,1-2.63,2.54,2.43,2.43,0,0,1-2.49-2.54,2.52,2.52,0,0,1,2.58-2.58A2.48,2.48,0,0,1,377.45,282.78Zm-4.61,29.14V289.17H377v22.75h-4.14Z" transform="translate(-31.23 -28.2)" fill="#fff"/>
      <path d="M384.27,311.92v-19.6h-3.15v-3.15h3.15V287.9c0-6,3.53-9.87,9.92-9.87a11.39,11.39,0,0,1,5.78,1.5l-1.17,3.15a8.82,8.82,0,0,0-4.79-1.32c-4.37,0-5.64,3.05-5.64,6.67v1.13h13.21v22.75h-4.14v-19.6h-9.07v19.6h-4.09Z" transform="translate(-31.23 -28.2)" fill="#fff"/>
      <path d="M424.64,311.12a16,16,0,0,1-6.53,1.32c-6.86,0-11.33-4.65-11.33-11.61S411.57,288.7,419,288.7a13,13,0,0,1,5.73,1.22l-0.94,3.15A10.12,10.12,0,0,0,419,292c-5.22,0-8,3.9-8,8.6,0,5.26,3.38,8.51,7.9,8.51a11.84,11.84,0,0,0,5.08-1.08Z" transform="translate(-31.23 -28.2)" fill="#fff"/>
      <path d="M445.46,306.47a38.26,38.26,0,0,0,.33,5.45h-3.71L441.75,309h-0.14a8.47,8.47,0,0,1-7,3.38c-4.61,0-7-3.24-7-6.53,0-5.5,4.89-8.51,13.68-8.46V297c0-1.83-.52-5.26-5.17-5.22a11,11,0,0,0-6,1.69l-0.94-2.77a14.72,14.72,0,0,1,7.52-2c7,0,8.65,4.75,8.65,9.26v8.51Zm-4-6.16c-4.51-.09-9.63.71-9.63,5.12a3.62,3.62,0,0,0,3.85,3.95,5.74,5.74,0,0,0,5.59-3.81,4.64,4.64,0,0,0,.19-1.32v-3.95Z" transform="translate(-31.23 -28.2)" fill="#fff"/>
      <path d="M468.35,311.12a16,16,0,0,1-6.53,1.32c-6.86,0-11.33-4.65-11.33-11.61s4.79-12.12,12.22-12.12a13,13,0,0,1,5.73,1.22l-0.94,3.15a10.12,10.12,0,0,0-4.79-1.08c-5.22,0-8,3.9-8,8.6,0,5.26,3.38,8.51,7.9,8.51a11.84,11.84,0,0,0,5.08-1.08Z" transform="translate(-31.23 -28.2)" fill="#fff"/>
      <path d="M477.8,282.78a2.47,2.47,0,0,1-2.63,2.54,2.43,2.43,0,0,1-2.49-2.54,2.52,2.52,0,0,1,2.58-2.58A2.48,2.48,0,0,1,477.8,282.78Zm-4.61,29.14V289.17h4.14v22.75h-4.14Z" transform="translate(-31.23 -28.2)" fill="#fff"/>
      <path d="M504.77,300.36c0,8.41-5.87,12.08-11.33,12.08-6.11,0-10.9-4.51-10.9-11.7,0-7.57,5-12,11.28-12C500.35,288.7,504.77,293.45,504.77,300.36Zm-18,.24c0,5,2.82,8.74,6.86,8.74s6.91-3.71,6.91-8.83c0-3.85-1.93-8.7-6.82-8.7S486.77,296.31,486.77,300.59Zm13.07-21.24-5.73,6.72h-2.91l4.09-6.72h4.56Z" transform="translate(-31.23 -28.2)" fill="#fff"/>
      <path d="M510,295.33c0-2.4,0-4.28-.19-6.16h3.67l0.24,3.76h0.09a8.42,8.42,0,0,1,7.52-4.23c3.15,0,8,1.88,8,9.68v13.54h-4.14V298.8c0-3.67-1.36-6.72-5.26-6.72a6.07,6.07,0,0,0-5.83,6.16v13.68H510V295.33Z" transform="translate(-31.23 -28.2)" fill="#fff"/>
    </g>
    <g>
      <path d="M82.75,57.92c0,13.44-9.92,24.32-26.24,24.32-15.36,0-25.28-10.88-25.28-24.32,0-13.76,10.24-24.32,25.92-24.32S82.43,44.16,82.75,57.92Zm-50.24,200V101.44H81.16V257.92H32.51Z" transform="translate(-31.23 -28.2)" fill="#fff"/>
      <path d="M237.63,253.76c-8.64,4.16-25,7.36-43.52,7.36-50.56,0-82.88-31-82.88-80,0-45.76,31.36-83.2,89.6-83.2,12.8,0,26.88,2.24,37.12,6.08l-7.68,36.16c-5.76-2.56-14.4-4.8-27.2-4.8-25.6,0-42.24,18.24-41.92,43.84,0,28.48,19.2,43.84,42.88,43.84,11.52,0,20.48-1.92,27.84-5.12Z" transform="translate(-31.23 -28.2)" fill="#fff"/>
    </g>
    <g>
      <ellipse cx="373.47" cy="118.5" rx="25.37" ry="31.42" transform="translate(105.74 402.7) rotate(-70.48)" fill="#067bc0"/>
      <path d="M467.67,153.33S457,184.33,423,196.67c0,0-26,13-72.33,0,0,0-33.33-9.33-57.33-38.33l38-13.33S389,199,434,137.33Z" transform="translate(-31.23 -28.2)" fill="#067bc0"/>
      <path d="M491.67,165.67s-31,48-81.33,55.33c0,0-55,13.33-109.33-27.67,0,0-47.24-32.33-27-90.32v0c12.73-29.85,48.38-36,51.95-36.38h0.1C395.78,60,448,105,448,105l47.63-12C480.67,74,448,56.67,448,56.67,405,32,350.49,28.8,350.49,28.8,257.67,21,234.67,91.67,234.67,91.67l0,0.15,5.43,1.08a14.24,14.24,0,0,1,11.15,16.7l-6.47,32.48a14.24,14.24,0,0,1-16.7,11.15l-0.71-.14C228,156.13,248,249.2,380.5,261c0,0,102.17,11.33,147.83-80Z" transform="translate(-31.23 -28.2)" fill="#067bc0"/>
    </g>
  </g>
</svg>
